<?xml version="1.0" standalone="no"?>
<!DOCTYPE svg PUBLIC "-//W3C//DTD SVG 20010904//EN"
 "http://www.w3.org/TR/2001/REC-SVG-20010904/DTD/svg10.dtd">
<svg version="1.0" xmlns="http://www.w3.org/2000/svg"
 width="1024.000000pt" height="1024.000000pt" viewBox="0 0 1024.000000 1024.000000"
 preserveAspectRatio="xMidYMid meet">
<metadata>
Created by potrace 1.14, written by Peter Selinger 2001-2017
</metadata>
<g transform="translate(0.000000,1024.000000) scale(0.100000,-0.100000)"
fill="#000000" stroke="none">
<path d="M4858 10235 c-2 -2 -48 -6 -104 -9 -55 -3 -118 -8 -140 -11 -21 -2
-64 -7 -94 -10 -30 -3 -84 -10 -120 -16 -36 -6 -76 -12 -90 -14 -46 -6 -104
-16 -195 -35 -49 -11 -105 -22 -124 -25 -89 -15 -317 -80 -516 -147 -213 -71
-390 -145 -620 -258 -193 -96 -222 -112 -330 -174 -84 -49 -335 -216 -435
-289 -301 -222 -607 -504 -840 -776 -30 -35 -60 -69 -65 -75 -6 -6 -42 -51
-81 -101 -283 -358 -518 -754 -697 -1175 -103 -241 -180 -466 -243 -710 -5
-22 -61 -260 -62 -265 0 -3 -5 -29 -11 -58 -6 -28 -13 -68 -16 -87 -11 -73
-34 -237 -40 -285 -3 -27 -8 -64 -10 -82 -26 -187 -26 -857 0 -1014 2 -13 6
-51 10 -84 6 -62 8 -81 26 -200 29 -191 49 -288 105 -505 41 -158 112 -395
135 -445 5 -11 20 -51 35 -90 88 -240 240 -551 397 -815 103 -174 311 -469
430 -610 247 -293 487 -529 762 -749 196 -156 372 -278 623 -428 265 -160 684
-347 992 -443 74 -23 153 -48 176 -55 47 -16 315 -82 359 -89 17 -2 95 -16
175 -30 169 -29 196 -33 276 -41 32 -4 73 -8 89 -10 202 -25 930 -25 1008 0 7
2 46 6 87 10 90 7 285 39 545 91 199 39 637 180 850 274 22 10 74 32 115 50
287 124 681 357 963 568 268 201 543 453 750 687 39 44 73 82 77 85 3 3 24 28
45 55 22 28 43 52 46 55 17 15 206 270 266 360 158 235 336 556 432 780 13 30
32 73 42 95 57 131 159 421 207 595 32 113 46 168 58 230 3 14 9 39 14 55 5
17 11 44 14 60 3 17 14 80 25 140 26 147 36 213 47 320 3 33 7 70 9 83 26 165
26 851 1 1002 -3 14 -7 52 -10 85 -8 77 -15 133 -21 165 -3 14 -7 43 -11 65
-24 170 -92 474 -145 643 -61 199 -141 421 -192 534 -13 29 -30 69 -37 88 -21
51 -152 315 -195 390 -21 36 -46 81 -57 100 -91 161 -277 437 -379 564 -5 6
-25 31 -45 56 -229 287 -536 596 -779 785 -21 17 -43 35 -49 40 -17 16 -163
125 -236 175 -36 25 -69 49 -75 53 -55 44 -299 192 -450 272 -49 27 -97 52
-105 56 -30 17 -270 129 -275 129 -3 0 -48 18 -100 40 -248 106 -628 221 -925
280 -116 23 -426 71 -437 68 -4 -1 -39 2 -78 6 -38 5 -88 10 -110 13 -47 4
-642 12 -647 8z"/>
</g>
</svg>
